# xmcd CD database file
#
# Track frame offsets:
#	150
#	11434
#	23968
#	36539
#	48626
#	68734
#	78172
#	90431
#	104199
#	118376
#	128196
#	142673
#	152587
#	164480
#	174708
#
# Disc length: 2504 seconds
#
# Revision: 5
# Processed by: cddbd v1.5.2PL0 Copyright (c) Steve Scherf et al.
# Submitted via: CDex 1.51
#
DISCID=ca09c60f
DTITLE=Various Artist - Classic Country - Stars - CD 2
DYEAR=1900
DGENRE=Country
TTITLE0=Roger Miller - King Of The Road
TTITLE1=Patsy Cline - Crazy
TTITLE2=Merle Haggard - Okie From Muskogie
TTITLE3=Johnny Cash - Ring Of Fire
TTITLE4=Marty Robbins - El Paso
TTITLE5=Charley Pride - Kiss An Angel Good Morning
TTITLE6=Eddy Arnold - Make The World Go Away
TTITLE7=Loretta Lynn - Coal Minner's Daughter
TTITLE8=Everly Brothers - Ebony Eyes
TTITLE9=George Jones - The Race Is On
TTITLE10=David Houston - Almost Persuaded
TTITLE11=Dave Dudley - Six Days On The Road
TTITLE12=Jack Greene - There Goes My Everything
TTITLE13=Merle Haggard - Mama Tried
TTITLE14=Charlie Rich - Behind Closed Doors
EXTD=
EXTT0=
EXTT1=
EXTT2=
EXTT3=
EXTT4=
EXTT5=
EXTT6=
EXTT7=
EXTT8=
EXTT9=
EXTT10=
EXTT11=
EXTT12=
EXTT13=
EXTT14=
PLAYORDER=
